<mxfile host="app.diagrams.net" modified="2023-10-11T23:42:05.742Z" agent="Mozilla/5.0 (Windows NT 10.0; Win64; x64) AppleWebKit/537.36 (KHTML, like Gecko) Chrome/109.0.0.0 Safari/537.36" etag="TB66vSorhlNTD7nQTy5q" version="22.0.4" type="device">
  <diagram name="Страница 1" id="JkA8GQQNuBLybVDqiDYR">
    <mxGraphModel dx="1120" dy="1616" grid="1" gridSize="10" guides="1" tooltips="1" connect="1" arrows="1" fold="1" page="1" pageScale="1" pageWidth="827" pageHeight="1169" math="0" shadow="0">
      <root>
        <mxCell id="0" />
        <mxCell id="1" parent="0" />
        <mxCell id="i30caB6TVAmt1dE0kOsS-100" value="" style="rounded=0;whiteSpace=wrap;html=1;" parent="1" vertex="1">
          <mxGeometry x="160" y="-40" width="1260" height="1220" as="geometry" />
        </mxCell>
        <mxCell id="i30caB6TVAmt1dE0kOsS-2" value="Администатор" style="shape=umlActor;verticalLabelPosition=bottom;verticalAlign=top;html=1;outlineConnect=0;" parent="1" vertex="1">
          <mxGeometry x="60" y="100" width="60" height="120" as="geometry" />
        </mxCell>
        <mxCell id="i30caB6TVAmt1dE0kOsS-8" value="Повысить&lt;br&gt;&amp;nbsp;безопасность" style="ellipse;whiteSpace=wrap;html=1;" parent="1" vertex="1">
          <mxGeometry x="330" y="-20" width="150" height="60" as="geometry" />
        </mxCell>
        <mxCell id="i30caB6TVAmt1dE0kOsS-9" value="Управлять&lt;br&gt;проектами" style="ellipse;whiteSpace=wrap;html=1;" parent="1" vertex="1">
          <mxGeometry x="330" y="120" width="150" height="60" as="geometry" />
        </mxCell>
        <mxCell id="i30caB6TVAmt1dE0kOsS-10" value="Управлять пользователем" style="ellipse;whiteSpace=wrap;html=1;" parent="1" vertex="1">
          <mxGeometry x="330" y="190" width="150" height="60" as="geometry" />
        </mxCell>
        <mxCell id="i30caB6TVAmt1dE0kOsS-11" value="Управлять&lt;br&gt;&amp;nbsp;платежами" style="ellipse;whiteSpace=wrap;html=1;" parent="1" vertex="1">
          <mxGeometry x="330" y="50" width="150" height="60" as="geometry" />
        </mxCell>
        <mxCell id="i30caB6TVAmt1dE0kOsS-12" value="" style="endArrow=none;html=1;rounded=0;entryX=0;entryY=0.5;entryDx=0;entryDy=0;" parent="1" target="i30caB6TVAmt1dE0kOsS-8" edge="1">
          <mxGeometry width="50" height="50" relative="1" as="geometry">
            <mxPoint x="120" y="160" as="sourcePoint" />
            <mxPoint x="261" y="47" as="targetPoint" />
          </mxGeometry>
        </mxCell>
        <mxCell id="i30caB6TVAmt1dE0kOsS-13" value="" style="endArrow=none;html=1;rounded=0;entryX=0;entryY=0.5;entryDx=0;entryDy=0;" parent="1" target="i30caB6TVAmt1dE0kOsS-11" edge="1">
          <mxGeometry width="50" height="50" relative="1" as="geometry">
            <mxPoint x="120" y="160" as="sourcePoint" />
            <mxPoint x="271" y="57" as="targetPoint" />
          </mxGeometry>
        </mxCell>
        <mxCell id="i30caB6TVAmt1dE0kOsS-14" value="" style="endArrow=none;html=1;rounded=0;entryX=0;entryY=0.5;entryDx=0;entryDy=0;" parent="1" target="i30caB6TVAmt1dE0kOsS-9" edge="1">
          <mxGeometry width="50" height="50" relative="1" as="geometry">
            <mxPoint x="120" y="160" as="sourcePoint" />
            <mxPoint x="340" y="90" as="targetPoint" />
          </mxGeometry>
        </mxCell>
        <mxCell id="i30caB6TVAmt1dE0kOsS-15" value="" style="endArrow=none;html=1;rounded=0;entryX=0;entryY=0.5;entryDx=0;entryDy=0;" parent="1" target="i30caB6TVAmt1dE0kOsS-10" edge="1">
          <mxGeometry width="50" height="50" relative="1" as="geometry">
            <mxPoint x="120" y="160" as="sourcePoint" />
            <mxPoint x="350" y="100" as="targetPoint" />
          </mxGeometry>
        </mxCell>
        <mxCell id="i30caB6TVAmt1dE0kOsS-18" value="Пользователь / &lt;br&gt;Фрилансер" style="shape=umlActor;verticalLabelPosition=bottom;verticalAlign=top;html=1;outlineConnect=0;" parent="1" vertex="1">
          <mxGeometry x="70" y="470" width="60" height="120" as="geometry" />
        </mxCell>
        <mxCell id="i30caB6TVAmt1dE0kOsS-20" value="Клиент&lt;br&gt;" style="shape=umlActor;verticalLabelPosition=bottom;verticalAlign=top;html=1;outlineConnect=0;" parent="1" vertex="1">
          <mxGeometry x="1460" y="470" width="60" height="120" as="geometry" />
        </mxCell>
        <mxCell id="i30caB6TVAmt1dE0kOsS-21" value="Зарегистрироваться" style="ellipse;whiteSpace=wrap;html=1;" parent="1" vertex="1">
          <mxGeometry x="570" y="290" width="150" height="60" as="geometry" />
        </mxCell>
        <mxCell id="i30caB6TVAmt1dE0kOsS-22" value="Сбросить пароль" style="ellipse;whiteSpace=wrap;html=1;" parent="1" vertex="1">
          <mxGeometry x="940" y="290" width="150" height="60" as="geometry" />
        </mxCell>
        <mxCell id="i30caB6TVAmt1dE0kOsS-23" value="" style="endArrow=none;html=1;rounded=0;entryX=0;entryY=0.5;entryDx=0;entryDy=0;" parent="1" target="i30caB6TVAmt1dE0kOsS-21" edge="1">
          <mxGeometry width="50" height="50" relative="1" as="geometry">
            <mxPoint x="140" y="520" as="sourcePoint" />
            <mxPoint x="530" y="350" as="targetPoint" />
          </mxGeometry>
        </mxCell>
        <mxCell id="i30caB6TVAmt1dE0kOsS-24" value="" style="endArrow=none;html=1;rounded=0;entryX=0;entryY=0.5;entryDx=0;entryDy=0;" parent="1" target="i30caB6TVAmt1dE0kOsS-22" edge="1">
          <mxGeometry width="50" height="50" relative="1" as="geometry">
            <mxPoint x="140" y="520" as="sourcePoint" />
            <mxPoint x="390" y="340" as="targetPoint" />
          </mxGeometry>
        </mxCell>
        <mxCell id="i30caB6TVAmt1dE0kOsS-25" value="" style="endArrow=none;html=1;rounded=0;entryX=1;entryY=0.5;entryDx=0;entryDy=0;" parent="1" target="i30caB6TVAmt1dE0kOsS-21" edge="1">
          <mxGeometry width="50" height="50" relative="1" as="geometry">
            <mxPoint x="1440" y="520" as="sourcePoint" />
            <mxPoint x="650" y="340" as="targetPoint" />
          </mxGeometry>
        </mxCell>
        <mxCell id="i30caB6TVAmt1dE0kOsS-26" value="" style="endArrow=none;html=1;rounded=0;entryX=1;entryY=0.5;entryDx=0;entryDy=0;" parent="1" target="i30caB6TVAmt1dE0kOsS-22" edge="1">
          <mxGeometry width="50" height="50" relative="1" as="geometry">
            <mxPoint x="1440" y="520" as="sourcePoint" />
            <mxPoint x="540" y="340" as="targetPoint" />
          </mxGeometry>
        </mxCell>
        <mxCell id="i30caB6TVAmt1dE0kOsS-29" value="Авторизоваться" style="ellipse;whiteSpace=wrap;html=1;" parent="1" vertex="1">
          <mxGeometry x="240" y="500" width="150" height="60" as="geometry" />
        </mxCell>
        <mxCell id="i30caB6TVAmt1dE0kOsS-30" value="" style="endArrow=none;html=1;rounded=0;entryX=0;entryY=0.5;entryDx=0;entryDy=0;" parent="1" target="i30caB6TVAmt1dE0kOsS-29" edge="1">
          <mxGeometry width="50" height="50" relative="1" as="geometry">
            <mxPoint x="140" y="520" as="sourcePoint" />
            <mxPoint x="530" y="400" as="targetPoint" />
          </mxGeometry>
        </mxCell>
        <mxCell id="i30caB6TVAmt1dE0kOsS-31" value="Авторизоваться" style="ellipse;whiteSpace=wrap;html=1;" parent="1" vertex="1">
          <mxGeometry x="1150" y="490" width="150" height="60" as="geometry" />
        </mxCell>
        <mxCell id="i30caB6TVAmt1dE0kOsS-32" value="" style="endArrow=none;html=1;rounded=0;exitX=1;exitY=0.5;exitDx=0;exitDy=0;" parent="1" source="i30caB6TVAmt1dE0kOsS-31" edge="1">
          <mxGeometry width="50" height="50" relative="1" as="geometry">
            <mxPoint x="480" y="450" as="sourcePoint" />
            <mxPoint x="1440" y="520" as="targetPoint" />
          </mxGeometry>
        </mxCell>
        <mxCell id="i30caB6TVAmt1dE0kOsS-33" value="Проверить логин и пароль" style="ellipse;whiteSpace=wrap;html=1;" parent="1" vertex="1">
          <mxGeometry x="750" y="420" width="150" height="60" as="geometry" />
        </mxCell>
        <mxCell id="i30caB6TVAmt1dE0kOsS-51" value="" style="endArrow=open;html=1;dashed=1;rounded=0;entryX=1;entryY=0.5;entryDx=0;entryDy=0;" parent="1" target="i30caB6TVAmt1dE0kOsS-29" edge="1">
          <mxGeometry width="50" height="50" relative="1" as="geometry">
            <mxPoint x="750" y="450" as="sourcePoint" />
            <mxPoint x="450" y="470" as="targetPoint" />
          </mxGeometry>
        </mxCell>
        <mxCell id="i30caB6TVAmt1dE0kOsS-53" value="" style="endArrow=open;html=1;dashed=1;rounded=0;exitX=1;exitY=0.5;exitDx=0;exitDy=0;entryX=0;entryY=0.5;entryDx=0;entryDy=0;" parent="1" source="i30caB6TVAmt1dE0kOsS-33" target="i30caB6TVAmt1dE0kOsS-31" edge="1">
          <mxGeometry width="50" height="50" relative="1" as="geometry">
            <mxPoint x="490" y="460" as="sourcePoint" />
            <mxPoint x="400" y="540" as="targetPoint" />
          </mxGeometry>
        </mxCell>
        <mxCell id="i30caB6TVAmt1dE0kOsS-56" value="Добавить навыки" style="ellipse;whiteSpace=wrap;html=1;" parent="1" vertex="1">
          <mxGeometry x="530" y="570" width="150" height="60" as="geometry" />
        </mxCell>
        <mxCell id="i30caB6TVAmt1dE0kOsS-57" value="Обновить профиль" style="ellipse;whiteSpace=wrap;html=1;" parent="1" vertex="1">
          <mxGeometry x="530" y="640" width="150" height="60" as="geometry" />
        </mxCell>
        <mxCell id="i30caB6TVAmt1dE0kOsS-59" value="Искать работу" style="ellipse;whiteSpace=wrap;html=1;" parent="1" vertex="1">
          <mxGeometry x="530" y="710" width="150" height="60" as="geometry" />
        </mxCell>
        <mxCell id="i30caB6TVAmt1dE0kOsS-60" value="Подать заявку &lt;br&gt;на участие в проекте" style="ellipse;whiteSpace=wrap;html=1;" parent="1" vertex="1">
          <mxGeometry x="530" y="780" width="150" height="60" as="geometry" />
        </mxCell>
        <mxCell id="i30caB6TVAmt1dE0kOsS-61" value="Написать в чат" style="ellipse;whiteSpace=wrap;html=1;" parent="1" vertex="1">
          <mxGeometry x="530" y="850" width="150" height="60" as="geometry" />
        </mxCell>
        <mxCell id="i30caB6TVAmt1dE0kOsS-62" value="Получить &lt;br&gt;заработную плату" style="ellipse;whiteSpace=wrap;html=1;" parent="1" vertex="1">
          <mxGeometry x="530" y="920" width="150" height="60" as="geometry" />
        </mxCell>
        <mxCell id="i30caB6TVAmt1dE0kOsS-63" value="Частичная занятость" style="ellipse;whiteSpace=wrap;html=1;" parent="1" vertex="1">
          <mxGeometry x="810" y="640" width="150" height="60" as="geometry" />
        </mxCell>
        <mxCell id="i30caB6TVAmt1dE0kOsS-65" value="Полная занятость" style="ellipse;whiteSpace=wrap;html=1;" parent="1" vertex="1">
          <mxGeometry x="810" y="740" width="150" height="60" as="geometry" />
        </mxCell>
        <mxCell id="i30caB6TVAmt1dE0kOsS-66" value="" style="endArrow=none;html=1;rounded=0;entryX=0;entryY=0.5;entryDx=0;entryDy=0;" parent="1" target="i30caB6TVAmt1dE0kOsS-56" edge="1">
          <mxGeometry width="50" height="50" relative="1" as="geometry">
            <mxPoint x="390" y="950" as="sourcePoint" />
            <mxPoint x="880" y="680" as="targetPoint" />
            <Array as="points">
              <mxPoint x="390" y="600" />
            </Array>
          </mxGeometry>
        </mxCell>
        <mxCell id="i30caB6TVAmt1dE0kOsS-67" value="" style="endArrow=none;html=1;rounded=0;entryX=0;entryY=0.5;entryDx=0;entryDy=0;" parent="1" target="i30caB6TVAmt1dE0kOsS-62" edge="1">
          <mxGeometry width="50" height="50" relative="1" as="geometry">
            <mxPoint x="390" y="950" as="sourcePoint" />
            <mxPoint x="880" y="880" as="targetPoint" />
          </mxGeometry>
        </mxCell>
        <mxCell id="i30caB6TVAmt1dE0kOsS-68" value="" style="endArrow=none;html=1;rounded=0;entryX=0;entryY=0.5;entryDx=0;entryDy=0;" parent="1" target="i30caB6TVAmt1dE0kOsS-57" edge="1">
          <mxGeometry width="50" height="50" relative="1" as="geometry">
            <mxPoint x="390" y="670" as="sourcePoint" />
            <mxPoint x="490" y="670" as="targetPoint" />
          </mxGeometry>
        </mxCell>
        <mxCell id="i30caB6TVAmt1dE0kOsS-69" value="" style="endArrow=none;html=1;rounded=0;entryX=0;entryY=0.5;entryDx=0;entryDy=0;" parent="1" edge="1">
          <mxGeometry width="50" height="50" relative="1" as="geometry">
            <mxPoint x="390" y="739.5" as="sourcePoint" />
            <mxPoint x="530" y="739.5" as="targetPoint" />
          </mxGeometry>
        </mxCell>
        <mxCell id="i30caB6TVAmt1dE0kOsS-70" value="" style="endArrow=none;html=1;rounded=0;entryX=0;entryY=0.5;entryDx=0;entryDy=0;" parent="1" edge="1">
          <mxGeometry width="50" height="50" relative="1" as="geometry">
            <mxPoint x="390" y="809.5" as="sourcePoint" />
            <mxPoint x="530" y="809.5" as="targetPoint" />
          </mxGeometry>
        </mxCell>
        <mxCell id="i30caB6TVAmt1dE0kOsS-71" value="" style="endArrow=none;html=1;rounded=0;entryX=0;entryY=0.5;entryDx=0;entryDy=0;" parent="1" edge="1">
          <mxGeometry width="50" height="50" relative="1" as="geometry">
            <mxPoint x="390" y="879.5" as="sourcePoint" />
            <mxPoint x="530" y="879.5" as="targetPoint" />
          </mxGeometry>
        </mxCell>
        <mxCell id="i30caB6TVAmt1dE0kOsS-73" value="" style="endArrow=open;html=1;dashed=1;rounded=0;entryX=0.5;entryY=1;entryDx=0;entryDy=0;" parent="1" target="i30caB6TVAmt1dE0kOsS-29" edge="1">
          <mxGeometry width="50" height="50" relative="1" as="geometry">
            <mxPoint x="390" y="780" as="sourcePoint" />
            <mxPoint x="170" y="750" as="targetPoint" />
            <Array as="points">
              <mxPoint x="315" y="780" />
            </Array>
          </mxGeometry>
        </mxCell>
        <mxCell id="i30caB6TVAmt1dE0kOsS-75" value="" style="endArrow=none;html=1;rounded=0;entryX=0;entryY=0.5;entryDx=0;entryDy=0;exitX=0;exitY=0.5;exitDx=0;exitDy=0;" parent="1" source="i30caB6TVAmt1dE0kOsS-65" edge="1">
          <mxGeometry width="50" height="50" relative="1" as="geometry">
            <mxPoint x="670" y="1020" as="sourcePoint" />
            <mxPoint x="810" y="670" as="targetPoint" />
            <Array as="points">
              <mxPoint x="750" y="770" />
              <mxPoint x="750" y="670" />
            </Array>
          </mxGeometry>
        </mxCell>
        <mxCell id="i30caB6TVAmt1dE0kOsS-76" value="" style="endArrow=open;html=1;dashed=1;rounded=0;" parent="1" edge="1">
          <mxGeometry width="50" height="50" relative="1" as="geometry">
            <mxPoint x="750" y="740" as="sourcePoint" />
            <mxPoint x="680" y="740" as="targetPoint" />
            <Array as="points" />
          </mxGeometry>
        </mxCell>
        <mxCell id="i30caB6TVAmt1dE0kOsS-77" value="Создать проект" style="ellipse;whiteSpace=wrap;html=1;" parent="1" vertex="1">
          <mxGeometry x="1020" y="610" width="150" height="60" as="geometry" />
        </mxCell>
        <mxCell id="i30caB6TVAmt1dE0kOsS-78" value="Опубликовать вакансию" style="ellipse;whiteSpace=wrap;html=1;" parent="1" vertex="1">
          <mxGeometry x="1020" y="680" width="150" height="60" as="geometry" />
        </mxCell>
        <mxCell id="i30caB6TVAmt1dE0kOsS-79" value="Отыскать филансера" style="ellipse;whiteSpace=wrap;html=1;" parent="1" vertex="1">
          <mxGeometry x="1020" y="750" width="150" height="60" as="geometry" />
        </mxCell>
        <mxCell id="i30caB6TVAmt1dE0kOsS-80" value="Нанять фрилансера" style="ellipse;whiteSpace=wrap;html=1;" parent="1" vertex="1">
          <mxGeometry x="1020" y="820" width="150" height="60" as="geometry" />
        </mxCell>
        <mxCell id="i30caB6TVAmt1dE0kOsS-81" value="Принимать/&lt;br&gt;отклонять заявки" style="ellipse;whiteSpace=wrap;html=1;" parent="1" vertex="1">
          <mxGeometry x="1020" y="890" width="150" height="60" as="geometry" />
        </mxCell>
        <mxCell id="i30caB6TVAmt1dE0kOsS-82" value="Произвести оплату" style="ellipse;whiteSpace=wrap;html=1;" parent="1" vertex="1">
          <mxGeometry x="1020" y="960" width="150" height="60" as="geometry" />
        </mxCell>
        <mxCell id="i30caB6TVAmt1dE0kOsS-83" value="Сделать обзор" style="ellipse;whiteSpace=wrap;html=1;" parent="1" vertex="1">
          <mxGeometry x="1020" y="1035" width="150" height="60" as="geometry" />
        </mxCell>
        <mxCell id="i30caB6TVAmt1dE0kOsS-84" value="Написать в чат" style="ellipse;whiteSpace=wrap;html=1;" parent="1" vertex="1">
          <mxGeometry x="1020" y="1105" width="150" height="60" as="geometry" />
        </mxCell>
        <mxCell id="i30caB6TVAmt1dE0kOsS-85" value="" style="endArrow=none;html=1;rounded=0;entryX=1;entryY=0.5;entryDx=0;entryDy=0;exitX=1;exitY=0.5;exitDx=0;exitDy=0;" parent="1" source="i30caB6TVAmt1dE0kOsS-84" target="i30caB6TVAmt1dE0kOsS-77" edge="1">
          <mxGeometry width="50" height="50" relative="1" as="geometry">
            <mxPoint x="1290" y="1065" as="sourcePoint" />
            <mxPoint x="1430" y="715" as="targetPoint" />
            <Array as="points">
              <mxPoint x="1290" y="1135" />
              <mxPoint x="1290" y="640" />
            </Array>
          </mxGeometry>
        </mxCell>
        <mxCell id="i30caB6TVAmt1dE0kOsS-86" value="" style="endArrow=none;html=1;rounded=0;entryX=1;entryY=0.5;entryDx=0;entryDy=0;" parent="1" target="i30caB6TVAmt1dE0kOsS-78" edge="1">
          <mxGeometry width="50" height="50" relative="1" as="geometry">
            <mxPoint x="1290" y="710" as="sourcePoint" />
            <mxPoint x="1170" y="710" as="targetPoint" />
          </mxGeometry>
        </mxCell>
        <mxCell id="i30caB6TVAmt1dE0kOsS-87" value="" style="endArrow=none;html=1;rounded=0;entryX=1;entryY=0.5;entryDx=0;entryDy=0;" parent="1" target="i30caB6TVAmt1dE0kOsS-79" edge="1">
          <mxGeometry width="50" height="50" relative="1" as="geometry">
            <mxPoint x="1290" y="779.5" as="sourcePoint" />
            <mxPoint x="1170" y="779.5" as="targetPoint" />
          </mxGeometry>
        </mxCell>
        <mxCell id="i30caB6TVAmt1dE0kOsS-88" value="" style="endArrow=none;html=1;rounded=0;entryX=1;entryY=0.5;entryDx=0;entryDy=0;" parent="1" target="i30caB6TVAmt1dE0kOsS-80" edge="1">
          <mxGeometry width="50" height="50" relative="1" as="geometry">
            <mxPoint x="1290" y="849.5" as="sourcePoint" />
            <mxPoint x="1170" y="850" as="targetPoint" />
          </mxGeometry>
        </mxCell>
        <mxCell id="i30caB6TVAmt1dE0kOsS-89" value="" style="endArrow=none;html=1;rounded=0;" parent="1" edge="1">
          <mxGeometry width="50" height="50" relative="1" as="geometry">
            <mxPoint x="1290" y="919.5" as="sourcePoint" />
            <mxPoint x="1170" y="920" as="targetPoint" />
          </mxGeometry>
        </mxCell>
        <mxCell id="i30caB6TVAmt1dE0kOsS-90" value="" style="endArrow=none;html=1;rounded=0;entryX=1;entryY=0.5;entryDx=0;entryDy=0;" parent="1" target="i30caB6TVAmt1dE0kOsS-82" edge="1">
          <mxGeometry width="50" height="50" relative="1" as="geometry">
            <mxPoint x="1290" y="989.5" as="sourcePoint" />
            <mxPoint x="1170" y="990" as="targetPoint" />
          </mxGeometry>
        </mxCell>
        <mxCell id="i30caB6TVAmt1dE0kOsS-91" value="" style="endArrow=none;html=1;rounded=0;entryX=1;entryY=0.5;entryDx=0;entryDy=0;" parent="1" target="i30caB6TVAmt1dE0kOsS-83" edge="1">
          <mxGeometry width="50" height="50" relative="1" as="geometry">
            <mxPoint x="1290" y="1064.5" as="sourcePoint" />
            <mxPoint x="1170" y="1064.5" as="targetPoint" />
          </mxGeometry>
        </mxCell>
        <mxCell id="i30caB6TVAmt1dE0kOsS-92" value="" style="endArrow=open;html=1;dashed=1;rounded=0;entryX=0.5;entryY=1;entryDx=0;entryDy=0;" parent="1" target="i30caB6TVAmt1dE0kOsS-31" edge="1">
          <mxGeometry width="50" height="50" relative="1" as="geometry">
            <mxPoint x="1225" y="640" as="sourcePoint" />
            <mxPoint x="690" y="750" as="targetPoint" />
            <Array as="points" />
          </mxGeometry>
        </mxCell>
        <mxCell id="i30caB6TVAmt1dE0kOsS-93" value="" style="endArrow=none;html=1;rounded=0;entryX=0.44;entryY=-0.05;entryDx=0;entryDy=0;entryPerimeter=0;" parent="1" source="i30caB6TVAmt1dE0kOsS-21" target="i30caB6TVAmt1dE0kOsS-22" edge="1">
          <mxGeometry width="50" height="50" relative="1" as="geometry">
            <mxPoint x="590" y="250" as="sourcePoint" />
            <mxPoint x="1010" y="240" as="targetPoint" />
            <Array as="points">
              <mxPoint x="645" y="240" />
              <mxPoint x="1006" y="240" />
            </Array>
          </mxGeometry>
        </mxCell>
        <mxCell id="i30caB6TVAmt1dE0kOsS-94" value="" style="endArrow=open;html=1;dashed=1;rounded=0;entryX=1;entryY=0.5;entryDx=0;entryDy=0;" parent="1" target="i30caB6TVAmt1dE0kOsS-10" edge="1">
          <mxGeometry width="50" height="50" relative="1" as="geometry">
            <mxPoint x="830" y="240" as="sourcePoint" />
            <mxPoint x="400" y="370" as="targetPoint" />
            <Array as="points">
              <mxPoint x="830" y="220" />
            </Array>
          </mxGeometry>
        </mxCell>
        <mxCell id="i30caB6TVAmt1dE0kOsS-95" value="&lt;b&gt;&quot;includes&quot;&lt;/b&gt;" style="text;html=1;strokeColor=none;fillColor=none;align=center;verticalAlign=middle;whiteSpace=wrap;rounded=0;" parent="1" vertex="1">
          <mxGeometry x="620" y="190" width="60" height="30" as="geometry" />
        </mxCell>
        <mxCell id="i30caB6TVAmt1dE0kOsS-96" value="&lt;b&gt;&quot;includes&quot;&lt;/b&gt;" style="text;html=1;strokeColor=none;fillColor=none;align=center;verticalAlign=middle;whiteSpace=wrap;rounded=0;" parent="1" vertex="1">
          <mxGeometry x="320" y="780" width="60" height="30" as="geometry" />
        </mxCell>
        <mxCell id="i30caB6TVAmt1dE0kOsS-97" value="&lt;b&gt;&quot;includes&quot;&lt;/b&gt;" style="text;html=1;strokeColor=none;fillColor=none;align=center;verticalAlign=middle;whiteSpace=wrap;rounded=0;" parent="1" vertex="1">
          <mxGeometry x="1230" y="585" width="60" height="30" as="geometry" />
        </mxCell>
        <mxCell id="i30caB6TVAmt1dE0kOsS-98" value="&lt;b&gt;&quot;extends&quot;&lt;/b&gt;" style="text;html=1;strokeColor=none;fillColor=none;align=center;verticalAlign=middle;whiteSpace=wrap;rounded=0;" parent="1" vertex="1">
          <mxGeometry x="690" y="710" width="60" height="30" as="geometry" />
        </mxCell>
        <mxCell id="7oEIr9Pm5eM1uOjSiobP-1" value="&lt;b&gt;&quot;includes&quot;&lt;/b&gt;" style="text;html=1;strokeColor=none;fillColor=none;align=center;verticalAlign=middle;whiteSpace=wrap;rounded=0;rotation=-15;" vertex="1" parent="1">
          <mxGeometry x="530" y="470" width="60" height="30" as="geometry" />
        </mxCell>
        <mxCell id="7oEIr9Pm5eM1uOjSiobP-3" value="&lt;b&gt;&quot;includes&quot;&lt;/b&gt;" style="text;html=1;strokeColor=none;fillColor=none;align=center;verticalAlign=middle;whiteSpace=wrap;rounded=0;rotation=15;" vertex="1" parent="1">
          <mxGeometry x="985" y="460" width="60" height="30" as="geometry" />
        </mxCell>
      </root>
    </mxGraphModel>
  </diagram>
</mxfile>
